<?xml version="1.0" encoding="utf-8"?>
<!-- Generator: Adobe Illustrator 27.5.0, SVG Export Plug-In . SVG Version: 6.00 Build 0)  -->
<svg version="1.1" xmlns="http://www.w3.org/2000/svg" xmlns:xlink="http://www.w3.org/1999/xlink" x="0px" y="0px"
	 viewBox="0 0 500 500" style="enable-background:new 0 0 500 500;" xml:space="preserve">
<g id="Background_Simple">
	<g>
		<path style="fill:#92E3A9;" d="M475.79,277.045c-13.494,40.9-42.565,85.725-85.346,100.317
			c-64.641,22.054-70.416,75.069-187.736,74.707c-18.292-0.055-35.271-1.97-50.936-5.47c-8.421-1.88-16.465-4.23-24.12-7.001
			c-69.499-25.07-107.551-84.691-112.981-148.401C7.516,207.403,64.54,165.128,101.7,140.229
			c37.16-24.899,79.531-117.452,194.867-118.002c17.585-0.076,35.199,1.647,52.355,5.593c39.163,8.991,79.458,30.67,103.664,63.702
			c1.817,2.482,3.557,5.026,5.23,7.622C490.464,149.943,494.191,221.286,475.79,277.045z"/>
		<path style="opacity:0.7;fill:#FFFFFF;" d="M475.79,277.045c-13.494,40.9-42.565,85.725-85.346,100.317
			c-64.641,22.054-70.416,75.069-187.736,74.707c-18.292-0.055-35.271-1.97-50.936-5.47c-8.421-1.88-16.465-4.23-24.12-7.001
			c-69.499-25.07-107.551-84.691-112.981-148.401C7.516,207.403,64.54,165.128,101.7,140.229
			c37.16-24.899,79.531-117.452,194.867-118.002c17.585-0.076,35.199,1.647,52.355,5.593c39.163,8.991,79.458,30.67,103.664,63.702
			c1.817,2.482,3.557,5.026,5.23,7.622C490.464,149.943,494.191,221.286,475.79,277.045z"/>
	</g>
</g>
<g id="Window">
	<g>
		<g>
			<polyline style="fill:none;stroke:#263238;stroke-linecap:round;stroke-linejoin:round;stroke-miterlimit:10;" points="
				28.481,29.309 21.188,37.779 151.661,37.779 151.661,29.309 			"/>
			<polyline style="fill:none;stroke:#263238;stroke-linecap:round;stroke-linejoin:round;stroke-miterlimit:10;" points="
				28.481,41.543 21.188,50.013 151.661,50.013 151.661,41.543 			"/>
			<polyline style="fill:none;stroke:#263238;stroke-linecap:round;stroke-linejoin:round;stroke-miterlimit:10;" points="
				28.481,53.777 21.188,62.247 151.661,62.247 151.661,53.777 			"/>
			<polyline style="fill:none;stroke:#263238;stroke-linecap:round;stroke-linejoin:round;stroke-miterlimit:10;" points="
				28.481,66.011 21.188,74.481 151.661,74.481 151.661,66.011 			"/>
			<polyline style="fill:none;stroke:#263238;stroke-linecap:round;stroke-linejoin:round;stroke-miterlimit:10;" points="
				28.481,78.245 21.188,86.715 151.661,86.715 151.661,78.245 			"/>
			<polyline style="fill:none;stroke:#263238;stroke-linecap:round;stroke-linejoin:round;stroke-miterlimit:10;" points="
				28.481,90.479 21.188,98.949 151.661,98.949 151.661,90.479 			"/>
			<polyline style="fill:none;stroke:#263238;stroke-linecap:round;stroke-linejoin:round;stroke-miterlimit:10;" points="
				28.481,102.714 21.188,111.183 151.661,111.183 151.661,102.714 			"/>
			<polyline style="fill:none;stroke:#263238;stroke-linecap:round;stroke-linejoin:round;stroke-miterlimit:10;" points="
				28.481,114.948 21.188,123.418 151.661,123.418 151.661,114.948 			"/>
			<polyline style="fill:none;stroke:#263238;stroke-linecap:round;stroke-linejoin:round;stroke-miterlimit:10;" points="
				28.481,127.182 21.188,135.652 151.661,135.652 151.661,127.182 			"/>
			<polyline style="fill:none;stroke:#263238;stroke-linecap:round;stroke-linejoin:round;stroke-miterlimit:10;" points="
				28.481,139.416 21.188,147.886 151.661,147.886 151.661,139.416 			"/>
			<polyline style="fill:none;stroke:#263238;stroke-linecap:round;stroke-linejoin:round;stroke-miterlimit:10;" points="
				28.481,151.65 21.188,160.12 151.661,160.12 151.661,151.65 			"/>
			<polyline style="fill:none;stroke:#263238;stroke-linecap:round;stroke-linejoin:round;stroke-miterlimit:10;" points="
				28.481,163.884 21.188,172.354 151.661,172.354 151.661,163.884 			"/>
			<polyline style="fill:none;stroke:#263238;stroke-linecap:round;stroke-linejoin:round;stroke-miterlimit:10;" points="
				28.481,176.118 21.188,184.588 151.661,184.588 151.661,176.118 			"/>
			<polyline style="fill:none;stroke:#263238;stroke-linecap:round;stroke-linejoin:round;stroke-miterlimit:10;" points="
				28.481,188.353 21.188,196.822 151.661,196.822 151.661,188.353 			"/>
			<polyline style="fill:none;stroke:#263238;stroke-linecap:round;stroke-linejoin:round;stroke-miterlimit:10;" points="
				28.481,200.587 21.188,209.057 151.661,209.057 151.661,200.587 			"/>
			<polyline style="fill:none;stroke:#263238;stroke-linecap:round;stroke-linejoin:round;stroke-miterlimit:10;" points="
				28.481,212.821 21.188,221.291 151.661,221.291 151.661,212.821 			"/>
			<polyline style="fill:none;stroke:#263238;stroke-linecap:round;stroke-linejoin:round;stroke-miterlimit:10;" points="
				28.481,225.055 21.188,233.525 151.661,233.525 151.661,225.055 			"/>
		</g>
		
			<rect x="20.993" y="16.861" style="fill:none;stroke:#263238;stroke-linecap:round;stroke-linejoin:round;stroke-miterlimit:10;" width="136.884" height="12.573"/>
		
			<line style="fill:none;stroke:#263238;stroke-linecap:round;stroke-linejoin:round;stroke-miterlimit:10;" x1="154.79" y1="30.008" x2="154.79" y2="154.308"/>
		
			<rect x="152.732" y="154.706" style="fill:none;stroke:#263238;stroke-linecap:round;stroke-linejoin:round;stroke-miterlimit:10;" width="4.46" height="8.765"/>
	</g>
</g>
<g id="Plant">
	<g>
		<g>
			<g>
				<path style="fill:#263238;" d="M70.202,278.883l0.002-0.006c0.019-0.047-0.004-0.102-0.051-0.122
					c-0.048-0.021-0.104,0.001-0.125,0.05c-2.885,6.663-4.914,13.658-6.608,20.714c-1.634,7.075-2.818,14.252-3.646,21.474
					l-0.517,5.428c-0.08,0.905-0.178,1.81-0.243,2.716l-0.148,2.723c-0.078,1.816-0.19,3.632-0.241,5.45l0.05,5.455l0.061,2.726
					c0.04,0.908,0.106,1.815,0.167,2.722c0.138,1.813,0.248,3.627,0.414,5.435c0.348,3.616,0.891,7.213,1.451,10.794
					c0.007,0.046,0.047,0.081,0.095,0.081c0.053,0,0.095-0.043,0.095-0.096v-0.005c-0.01-1.818-0.086-3.626-0.127-5.436
					c-0.052-1.808-0.21-3.607-0.184-5.416c0.008-1.808-0.039-3.611-0.059-5.414l-0.05-2.703l0.048-2.704l0.024-5.405l0.147-5.402
					l0.056-2.703c0.035-0.901,0.102-1.799,0.152-2.699l0.332-5.399c0.632-7.184,1.619-14.342,3.058-21.418
					C65.788,292.654,67.564,285.613,70.202,278.883z"/>
				<path style="fill:#263238;" d="M70.976,307.146c0.014-0.048-0.011-0.103-0.06-0.119c-0.05-0.017-0.104,0.009-0.122,0.059
					c-1.555,4.491-2.797,9.085-3.848,13.727c-1.003,4.65-1.791,9.361-2.271,14.108c-0.48,4.73-1.009,9.465-1.074,14.221
					c-0.073,4.753,0.003,9.512,0.505,14.261c0.005,0.044,0.04,0.081,0.085,0.085c0.053,0.006,0.1-0.033,0.105-0.085
					c0.549-4.735,0.884-9.458,1.212-14.18c0.335-4.72,0.38-9.453,0.688-14.174c0.285-4.707,0.876-9.395,1.686-14.052
					C68.679,316.338,69.669,311.697,70.976,307.146z"/>
				<path style="fill:#263238;" d="M86.645,317.088c-0.028-0.044-0.087-0.058-0.132-0.03c-3.922,2.483-7.42,5.61-10.477,9.134
					c-1.503,1.788-2.899,3.66-4.096,5.696l-0.842,1.589l-0.659,1.65c-0.237,0.547-0.404,1.111-0.575,1.673
					c-0.169,0.563-0.359,1.124-0.511,1.691c-1.177,4.541-1.956,9.169-2.168,13.82c-0.189,4.649-0.101,9.305,0.52,13.921
					c0.007,0.044,0.043,0.08,0.088,0.083c0.053,0.004,0.099-0.036,0.103-0.089l1.194-13.78c0.476-4.555,0.768-9.138,1.746-13.587
					c0.124-0.554,0.284-1.096,0.424-1.645c0.142-0.549,0.28-1.1,0.483-1.623l0.559-1.593l0.72-1.504
					c1.061-1.991,2.359-3.895,3.754-5.7c2.798-3.611,6.09-6.903,9.838-9.575l0.005-0.004
					C86.661,317.188,86.672,317.131,86.645,317.088z"/>
				<path style="fill:#263238;" d="M79.062,334.792c-2.135,1.379-3.563,3.547-4.764,5.727c-1.145,2.229-2.047,4.593-2.67,7.017
					c-0.188,0.6-0.335,1.208-0.466,1.82l-0.432,1.832c-0.22,1.23-0.393,2.474-0.463,3.721c-0.016,1.25-0.052,2.499,0.032,3.745
					c0.104,1.246,0.245,2.489,0.491,3.721c0.009,0.035,0.038,0.069,0.076,0.076c0.053,0.011,0.104-0.024,0.115-0.076
					c0.302-1.229,0.5-2.448,0.66-3.663c0.194-1.213,0.382-2.419,0.527-3.625c0.177-1.201,0.336-2.4,0.43-3.61
					c0.168-1.194,0.256-2.415,0.518-3.595c0.419-2.389,1.11-4.721,2.043-6.951c0.929-2.212,2.14-4.416,4-5.974l0.014-0.012
					c0.036-0.03,0.045-0.083,0.019-0.124C79.164,334.776,79.105,334.763,79.062,334.792z"/>
				<path style="fill:#263238;" d="M57.087,348.594c-0.515-6.117-1.524-12.173-2.478-18.226c-0.956-6.054-2.011-12.089-3.118-18.114
					c-1.147-6.017-2.345-12.023-3.643-18.008c-0.011-0.05-0.06-0.083-0.11-0.074c-0.052,0.009-0.086,0.059-0.077,0.111
					c1.047,6.03,1.994,12.077,2.889,18.13c0.918,6.048,1.782,12.104,2.548,18.171c0.748,6.069,1.33,12.152,2.091,18.211l2.238,18.21
					c0.005,0.046,0.043,0.082,0.091,0.085c0.053,0.003,0.097-0.038,0.1-0.091c0.07-1.534,0.072-3.069,0.109-4.607
					c0.014-1.537-0.062-3.068-0.09-4.605C57.579,354.712,57.317,351.655,57.087,348.594z"/>
				<path style="fill:#263238;" d="M53.419,348.506c-0.327-2.423-0.772-4.832-1.235-7.233l-0.859-3.571
					c-0.281-1.191-0.548-2.384-0.897-3.559c-1.221-4.739-2.78-9.397-4.675-13.911l-0.734-1.683l-0.815-1.647
					c-0.519-1.109-1.145-2.165-1.74-3.234c-1.279-2.083-2.606-4.165-4.415-5.854c-0.037-0.034-0.095-0.034-0.131,0.001
					c-0.038,0.036-0.039,0.097-0.002,0.135l0.009,0.01c1.672,1.733,2.891,3.873,4.039,5.987c0.532,1.088,1.094,2.157,1.549,3.28
					l0.718,1.665l0.637,1.699c1.695,4.529,3.054,9.183,4.076,13.915c0.557,2.353,0.927,4.752,1.383,7.125l0.573,3.585
					c0.207,1.192,0.463,2.376,0.63,3.575c0.382,2.392,0.822,4.777,1.239,7.17c0.371,2.399,0.809,4.795,1.315,7.192
					c0.009,0.043,0.048,0.079,0.094,0.079c0.053,0,0.096-0.042,0.096-0.095c0.011-2.444-0.046-4.889-0.171-7.331
					C53.962,353.367,53.673,350.939,53.419,348.506z"/>
				<path style="fill:#263238;" d="M48.357,348.818c-1.134-3.21-2.445-6.352-3.874-9.432c-1.467-3.064-3.05-6.069-4.872-8.932
					c-0.028-0.04-0.086-0.057-0.129-0.031c-0.046,0.027-0.06,0.085-0.034,0.131c1.592,2.973,2.938,6.075,4.158,9.211
					c1.242,3.128,2.361,6.303,3.298,9.528c0.957,3.222,1.642,6.506,2.499,9.742c0.901,3.234,1.63,6.501,2.624,9.776
					c0.012,0.039,0.049,0.07,0.092,0.071c0.053,0.001,0.097-0.042,0.098-0.095c0.048-3.417-0.287-6.832-0.952-10.177
					C50.666,355.246,49.484,352.025,48.357,348.818z"/>
				<path style="fill:#263238;" d="M48.147,359.509c-0.58-2.01-1.569-3.882-2.693-5.647c-1.104-1.773-2.384-3.45-3.919-4.87
					c-0.791-0.685-1.599-1.344-2.493-1.88c-0.88-0.55-1.815-1.015-2.828-1.278c-0.044-0.012-0.091,0.01-0.111,0.053
					c-0.021,0.048,0,0.104,0.048,0.126l0.011,0.005c1.833,0.815,3.382,2.165,4.691,3.644c1.327,1.481,2.385,3.179,3.268,4.948
					c0.928,1.757,1.408,3.699,2.215,5.509c0.356,0.928,0.71,1.862,1.122,2.789c0.349,0.946,0.737,1.889,1.23,2.826l0.003,0.005
					c0.016,0.03,0.047,0.051,0.083,0.052c0.054,0.002,0.1-0.04,0.102-0.094c0.044-1.047-0.018-2.088-0.117-3.127
					C48.609,361.544,48.392,360.524,48.147,359.509z"/>
			</g>
			<path style="fill:#92E3A9;" d="M48.525,303.003c0,0-10.024-2.313-12.337-13.108c-2.313-10.795,5.14-6.169-1.542-23.132
				c-6.683-16.963-5.14-20.818-2.827-25.702c2.313-4.883,3.598-3.341,5.654,3.084c2.056,6.425,9.51,16.449,12.337,35.212
				C52.637,298.12,48.525,303.003,48.525,303.003z"/>
			<path style="fill:#92E3A9;" d="M68.316,284.755c0,0-6.683-2.313-6.94-14.907c-0.257-12.594,4.883-10.024,5.655-25.702
				c0.771-15.678,1.799-26.73,4.626-26.987c2.827-0.257,10.281,7.711,12.851,25.188c2.57,17.477-3.341,29.043-8.482,34.183
				C70.886,281.671,68.316,284.755,68.316,284.755z"/>
			<path style="fill:#92E3A9;" d="M44.927,318.168c0,0-1.542-9.253-4.626-13.622c-3.084-4.37-9.767-8.225-14.136-16.706
				c-4.369-8.481-9.253-12.594-8.996-0.514c0.257,12.08,5.654,18.249,12.337,22.361C36.188,313.798,44.927,318.168,44.927,318.168z"
				/>
			<path style="fill:#92E3A9;" d="M42.1,334.103c0,0-6.169-11.823-15.164-20.562c-8.996-8.739-16.192-13.108-13.622-8.739
				c2.57,4.369,5.655,4.112,10.024,11.823c4.369,7.711,3.084,13.365,9.253,17.734S42.1,334.103,42.1,334.103z"/>
			<path style="fill:#92E3A9;" d="M41.328,349.267c-0.257-0.771-0.514-6.425-9.252-11.052c-8.739-4.626-16.963-2.827-15.935-0.514
				c1.028,2.313,6.425,6.169,11.823,8.482C33.361,348.496,41.328,349.267,41.328,349.267z"/>
			<path style="fill:#92E3A9;" d="M67.801,318.682c0,0-3.855-4.883-1.799-15.164c2.056-10.281,6.682-7.711,11.823-13.108
				c5.14-5.397,4.112-6.168,9.252-11.823c5.14-5.655,9.767-8.739,11.823-6.426c2.056,2.313-1.028,9.51-4.112,13.622
				c-3.084,4.112-7.967,6.168-10.281,11.309c-2.313,5.141-1.285,13.365-7.197,17.22C71.4,318.168,67.801,318.682,67.801,318.682z"/>
			<path style="fill:#92E3A9;" d="M80.652,321.509c0,0,9.253-10.538,15.935-18.248c6.683-7.711,9.253-13.622,9.51-8.482
				c0.257,5.14,2.313,9.253-3.084,15.935C97.616,317.397,80.652,321.509,80.652,321.509z"/>
			<path style="fill:#92E3A9;" d="M75.769,338.472c0,0-0.257-4.112,14.393-13.622c14.65-9.51,20.819-11.309,19.276-7.453
				c-1.542,3.855-7.967,7.71-14.907,14.65C87.592,338.986,75.769,338.472,75.769,338.472z"/>
			<path style="fill:none;stroke:#263238;stroke-linecap:round;stroke-linejoin:round;stroke-miterlimit:10;" d="M49.136,301.908
				c0,0-3.439-18.438-7.037-31.546c-3.598-13.108-5.912-21.076-5.912-21.076"/>
			<path style="fill:none;stroke:#263238;stroke-linecap:round;stroke-linejoin:round;stroke-miterlimit:10;" d="M67.723,284.949
				c0,0,6.246-19.985,8.303-32.064c2.056-12.08-0.257-21.076-1.285-26.473"/>
			<path style="fill:none;stroke:#263238;stroke-linecap:round;stroke-linejoin:round;stroke-miterlimit:10;" d="M44.117,317.782
				c0,0-3.816-6.811-9.471-13.493c-5.654-6.683-10.024-10.281-12.594-16.706"/>
			<path style="fill:none;stroke:#263238;stroke-linecap:round;stroke-linejoin:round;stroke-miterlimit:10;" d="M67.801,318.682
				c0,0,2.056-12.337,6.94-18.763c4.883-6.425,14.65-16.449,18.505-22.875"/>
			<path style="fill:none;stroke:#263238;stroke-linecap:round;stroke-linejoin:round;stroke-miterlimit:10;" d="M40.725,348.986
				c0,0-8.649-5.631-14.817-8.715"/>
		</g>
		<g>
			<g>
				<path style="fill:#263238;stroke:#263238;stroke-linecap:round;stroke-linejoin:round;stroke-miterlimit:10;" d="
					M90.245,400.792c-0.578-15.596-17.907-25.994-17.907-25.994H61.375h-4.633H45.779c0,0-17.329,10.398-17.907,25.994
					c-0.578,15.596,19.64,72.783,19.64,72.783h9.23h4.633h9.23C70.605,473.574,90.823,416.388,90.245,400.792z"/>
				<polygon style="fill:#263238;stroke:#263238;stroke-linecap:round;stroke-linejoin:round;stroke-miterlimit:10;" points="
					75.758,359.463 41.869,359.463 45.779,374.798 71.848,374.798 				"/>
			</g>
		</g>
	</g>
</g>
<g id="Device">
	
		<line style="fill:none;stroke:#263238;stroke-linecap:round;stroke-linejoin:round;stroke-miterlimit:10;" x1="482.512" y1="473.574" x2="17.831" y2="473.574"/>
	<g>
		<g>
			<path style="fill:#FFFFFF;stroke:#263238;stroke-miterlimit:10;" d="M304.175,58.456v343.626c0,9.432-7.646,17.077-17.077,17.077
				H138.621c-9.432,0-17.078-7.646-17.078-17.077V58.447c0-9.427,7.642-17.069,17.069-17.069h63.73l0.053,0.195
				c1.588,5.716,5.245,9.434,9.301,9.434h2.325c4.056,0,7.712-3.719,9.301-9.434l0.062-0.195h63.713
				C296.529,41.378,304.175,49.024,304.175,58.456z"/>
		</g>
		<g>
			<path style="fill:#263238;stroke:#263238;stroke-linecap:round;stroke-linejoin:round;stroke-miterlimit:10;" d="
				M240.894,285.368H187.93c-2.675,0-4.843-2.168-4.843-4.843v-9.837c0-2.675,2.168-4.843,4.843-4.843h52.964
				c2.675,0,4.843,2.168,4.843,4.843v9.837C245.737,283.2,243.569,285.368,240.894,285.368z"/>
		</g>
		<g>
			<path style="fill:#DBDBDB;stroke:#263238;stroke-linecap:round;stroke-linejoin:round;stroke-miterlimit:10;" d="
				M121.543,312.257v89.824c0,9.432,7.646,17.077,17.078,17.077h148.477c9.432,0,17.078-7.646,17.078-17.077v-89.824H121.543z"/>
		</g>
		<g>
			<path style="fill:#FFFFFF;" d="M177.165,339.926h-45.528c-1.255,0-2.273-1.018-2.273-2.273v-12.276
				c0-1.255,1.018-2.273,2.273-2.273h45.528c1.255,0,2.273,1.017,2.273,2.273v12.276
				C179.438,338.909,178.42,339.926,177.165,339.926z"/>
			<path style="fill:#FFFFFF;" d="M233.2,339.926h-45.528c-1.255,0-2.273-1.018-2.273-2.273v-12.276
				c0-1.255,1.018-2.273,2.273-2.273H233.2c1.255,0,2.273,1.017,2.273,2.273v12.276C235.473,338.909,234.455,339.926,233.2,339.926z
				"/>
			<path style="fill:#FFFFFF;" d="M289.235,339.926h-45.529c-1.255,0-2.273-1.018-2.273-2.273v-12.276
				c0-1.255,1.018-2.273,2.273-2.273h45.529c1.255,0,2.273,1.017,2.273,2.273v12.276
				C291.508,338.909,290.49,339.926,289.235,339.926z"/>
			<path style="fill:#FFFFFF;" d="M177.165,361.421h-45.528c-1.255,0-2.273-1.018-2.273-2.273v-12.276
				c0-1.255,1.018-2.273,2.273-2.273h45.528c1.255,0,2.273,1.017,2.273,2.273v12.276
				C179.438,360.403,178.42,361.421,177.165,361.421z"/>
			<path style="fill:#FFFFFF;" d="M233.2,361.421h-45.528c-1.255,0-2.273-1.018-2.273-2.273v-12.276
				c0-1.255,1.018-2.273,2.273-2.273H233.2c1.255,0,2.273,1.017,2.273,2.273v12.276C235.473,360.403,234.455,361.421,233.2,361.421z
				"/>
			<path style="fill:#FFFFFF;" d="M289.235,361.421h-45.529c-1.255,0-2.273-1.018-2.273-2.273v-12.276
				c0-1.255,1.018-2.273,2.273-2.273h45.529c1.255,0,2.273,1.017,2.273,2.273v12.276
				C291.508,360.403,290.49,361.421,289.235,361.421z"/>
			<path style="fill:#FFFFFF;" d="M177.165,382.915h-45.528c-1.255,0-2.273-1.018-2.273-2.273v-12.276
				c0-1.255,1.018-2.273,2.273-2.273h45.528c1.255,0,2.273,1.018,2.273,2.273v12.276
				C179.438,381.898,178.42,382.915,177.165,382.915z"/>
			<path style="fill:#FFFFFF;" d="M233.2,382.915h-45.528c-1.255,0-2.273-1.018-2.273-2.273v-12.276
				c0-1.255,1.018-2.273,2.273-2.273H233.2c1.255,0,2.273,1.018,2.273,2.273v12.276C235.473,381.898,234.455,382.915,233.2,382.915z
				"/>
			<path style="fill:#FFFFFF;" d="M289.235,382.915h-45.529c-1.255,0-2.273-1.018-2.273-2.273v-12.276
				c0-1.255,1.018-2.273,2.273-2.273h45.529c1.255,0,2.273,1.018,2.273,2.273v12.276
				C291.508,381.898,290.49,382.915,289.235,382.915z"/>
			<path style="fill:#FFFFFF;" d="M233.2,404.41h-45.528c-1.255,0-2.273-1.018-2.273-2.273v-12.276c0-1.255,1.018-2.273,2.273-2.273
				H233.2c1.255,0,2.273,1.018,2.273,2.273v12.276C235.473,403.392,234.455,404.41,233.2,404.41z"/>
			<polygon style="fill:#FFFFFF;" points="285.46,404.41 254.223,404.41 247.482,396.577 254.223,387.588 285.46,387.588 			"/>
		</g>
		<g>
			<g>
				<path style="fill:#92E3A9;" d="M214.863,119.2l-0.451-0.339l-0.451,0.339c0,0-23.021,13.09-33.403,18.055
					c0,0,4.965,27.986,8.576,40.625c3.611,12.639,17.604,19.41,25.278,23.924c7.674-4.514,21.667-11.285,25.278-23.924
					c3.611-12.639,8.576-40.625,8.576-40.625C237.884,132.29,214.863,119.2,214.863,119.2z"/>
			</g>
			<g>
				<path style="fill:#FFFFFF;" d="M212.052,173.31l-15.265-13.085c-1.468-1.258-1.638-3.467-0.379-4.935
					c1.257-1.468,3.467-1.638,4.935-0.379l10.012,8.582l17.128-19.518c1.275-1.454,3.485-1.598,4.939-0.322
					c1.453,1.275,1.597,3.486,0.322,4.939L212.052,173.31z"/>
			</g>
		</g>
		<g>
			<rect x="134.065" y="217.431" style="fill:#FFFFFF;stroke:#263238;stroke-miterlimit:10;" width="20.764" height="20.764"/>
			<rect x="162.051" y="217.431" style="fill:#FFFFFF;stroke:#263238;stroke-miterlimit:10;" width="20.764" height="20.764"/>
			<rect x="190.037" y="217.431" style="fill:#FFFFFF;stroke:#263238;stroke-miterlimit:10;" width="20.764" height="20.764"/>
			<rect x="218.023" y="217.431" style="fill:#FFFFFF;stroke:#263238;stroke-miterlimit:10;" width="20.764" height="20.764"/>
			<rect x="246.009" y="217.431" style="fill:#FFFFFF;stroke:#263238;stroke-miterlimit:10;" width="20.764" height="20.764"/>
			<rect x="273.995" y="217.431" style="fill:#FFFFFF;stroke:#263238;stroke-miterlimit:10;" width="20.764" height="20.764"/>
		</g>
		<g>
			<path style="fill:#DBDBDB;stroke:#263238;stroke-linecap:round;stroke-linejoin:round;stroke-miterlimit:10;" d="M304.175,74.444
				V58.456c0-9.432-7.646-17.077-17.077-17.077h-63.713l-0.062,0.195c-1.589,5.716-5.245,9.434-9.301,9.434h-2.326
				c-4.056,0-7.712-3.719-9.301-9.434l-0.053-0.195h-63.73c-9.427,0-17.069,7.642-17.069,17.069v15.997H304.175z"/>
		</g>
		<g>
			<path style="fill:#92E3A9;stroke:#263238;stroke-linecap:round;stroke-linejoin:round;stroke-miterlimit:10;" d="
				M315.789,140.528v-34.321h-3.105V62.269c0-14.958-12.126-27.084-27.084-27.084H140.119c-14.958,0-27.084,12.126-27.084,27.084
				v349.151c0,14.958,12.126,27.084,27.084,27.084H285.6c14.958,0,27.084-12.126,27.084-27.084v-241.64h3.105v-20.281h-3.105v-8.97
				H315.789z M304.175,392.072c0,14.964-12.132,27.087-27.087,27.087H148.63c-14.955,0-27.087-12.123-27.087-27.087V68.456
				c0-14.955,12.132-27.078,27.087-27.078h53.712l0.053,0.195c1.588,5.716,5.245,9.434,9.301,9.434h2.325
				c4.056,0,7.712-3.719,9.301-9.434l0.062-0.195h53.703c14.955,0,27.087,12.123,27.087,27.078V392.072z"/>
			<path style="fill:#263238;stroke:#263238;stroke-linecap:round;stroke-linejoin:round;stroke-miterlimit:10;" d="M283.427,38.915
				H142.292c-14.426,0-26.121,11.695-26.121,26.121v343.616c0,14.426,11.695,26.121,26.121,26.121h141.136
				c14.426,0,26.121-11.695,26.121-26.121V65.036C309.549,50.61,297.854,38.915,283.427,38.915z M304.175,393.035
				c0,14.428-11.696,26.124-26.124,26.124H147.667c-14.428,0-26.124-11.696-26.124-26.124V67.493
				c0-14.423,11.692-26.115,26.115-26.115h54.684l0.053,0.195c1.588,5.716,5.245,9.434,9.301,9.434h2.325
				c4.056,0,7.712-3.719,9.301-9.434l0.062-0.195h54.667c14.428,0,26.124,11.696,26.124,26.124V393.035z"/>
			<path style="fill:#FFFFFF;" d="M214.844,42.673c0-1.404-1.138-2.543-2.543-2.543c-1.405,0-2.543,1.138-2.543,2.543
				c0,1.404,1.138,2.543,2.543,2.543C213.706,45.216,214.844,44.077,214.844,42.673z"/>
			<g>
				<g>
					<path style="fill:#263238;" d="M137.776,52.417c0,2.573-2.889,3.499-2.901,5.462v0.134h2.804v0.866h-3.742v-0.732
						c0-2.755,2.889-3.291,2.889-5.693c0-0.877-0.293-1.341-1-1.341c-0.695,0-1,0.499-1,1.255v0.756h-0.89v-0.695
						c0-1.305,0.597-2.17,1.913-2.17C137.179,50.259,137.776,51.113,137.776,52.417z"/>
					<path style="fill:#263238;" d="M142.447,52.405v0.219c0,0.878-0.353,1.5-1.036,1.756c0.719,0.268,1.036,0.915,1.036,1.768
						v0.659c0,1.304-0.609,2.158-1.926,2.158c-1.304,0-1.913-0.853-1.913-2.158v-0.585h0.89v0.646c0,0.768,0.317,1.231,1,1.231
						c0.695,0,1-0.451,1-1.316v-0.659c0-0.841-0.354-1.243-1.073-1.268h-0.512v-0.854h0.561c0.634-0.024,1.025-0.426,1.025-1.17
						v-0.391c0-0.878-0.305-1.328-1-1.328c-0.683,0-1,0.475-1,1.243v0.439h-0.89v-0.39c0-1.305,0.609-2.146,1.913-2.146
						C141.837,50.259,142.447,51.1,142.447,52.405z"/>
					<path style="fill:#263238;" d="M144.289,53.051v1.183h-0.915v-1.183H144.289z M144.289,57.695v1.183h-0.915v-1.183H144.289z"/>
					<path style="fill:#263238;" d="M146.216,53.819c0.268-0.464,0.695-0.707,1.268-0.707c1.097,0,1.584,0.805,1.584,2.024v1.67
						c0,1.304-0.621,2.158-1.925,2.158c-1.305,0-1.914-0.853-1.914-2.158v-0.573h0.89v0.634c0,0.768,0.317,1.231,1,1.231
						s1-0.463,1-1.231v-1.658c0-0.768-0.317-1.231-1-1.231c-0.524,0-0.878,0.293-0.963,0.915v0.195h-0.89l0.232-4.743h3.364v0.853
						h-2.512L146.216,53.819z"/>
					<path style="fill:#263238;" d="M153.812,52.392v0.159h-0.889v-0.219c0-0.768-0.317-1.219-1.012-1.219
						c-0.72,0-1.037,0.463-1.037,1.378v1.914c0.232-0.585,0.695-0.914,1.378-0.914c1.097,0,1.585,0.793,1.585,2.024v1.293
						c0,1.304-0.647,2.158-1.951,2.158c-1.317,0-1.963-0.853-1.963-2.158v-4.353c0-1.353,0.61-2.194,1.963-2.194
						C153.203,50.259,153.812,51.088,153.812,52.392z M150.874,55.587v1.28c0,0.768,0.317,1.231,1.012,1.231
						c0.683,0,1.012-0.463,1.012-1.231v-1.28c0-0.768-0.329-1.231-1.012-1.231C151.191,54.355,150.874,54.818,150.874,55.587z"/>
				</g>
				<g>
					<rect x="244.567" y="52.768" style="fill:#263238;" width="2.41" height="6.024"/>
					<rect x="247.78" y="51.561" style="fill:#263238;" width="2.41" height="7.231"/>
					<rect x="250.993" y="50.704" style="fill:#263238;" width="2.41" height="8.087"/>
					<rect x="254.206" y="49.214" style="fill:#263238;" width="2.409" height="9.578"/>
					<g>
						<g>
							<path style="fill:#263238;" d="M286.434,58.626h-14.458v-8.835h14.458V58.626z M272.779,57.823h12.851v-7.229h-12.851V57.823
								z"/>
						</g>
						<g>
							<rect x="273.984" y="51.468" style="fill:#263238;" width="7.63" height="5.481"/>
						</g>
						<g>
							<rect x="285.932" y="53.168" style="fill:#263238;" width="1.818" height="2.081"/>
						</g>
					</g>
					<g>
						<path style="fill:#263238;" d="M266.675,56.704c-0.094,0-0.19-0.024-0.276-0.076c-2.942-1.748-4.887-0.125-4.968-0.057
							c-0.225,0.195-0.565,0.17-0.76-0.054c-0.195-0.225-0.174-0.562,0.05-0.758c0.104-0.092,2.591-2.222,6.231-0.059
							c0.256,0.152,0.341,0.484,0.188,0.74C267.038,56.61,266.859,56.704,266.675,56.704z"/>
					</g>
					<g>
						<path style="fill:#263238;" d="M267.764,54.889c-0.094,0-0.19-0.024-0.276-0.076c-4.254-2.53-7.113-0.082-7.143-0.059
							c-0.224,0.199-0.564,0.175-0.761-0.048c-0.197-0.224-0.176-0.565,0.048-0.761c0.035-0.032,3.483-2.986,8.408-0.059
							c0.256,0.152,0.341,0.484,0.188,0.74C268.126,54.796,267.947,54.889,267.764,54.889z"/>
					</g>
					<g>
						<path style="fill:#263238;" d="M268.752,52.787c-0.094,0-0.19-0.024-0.276-0.076c-5.388-3.204-8.97-0.188-9.12-0.057
							c-0.225,0.195-0.566,0.171-0.761-0.053c-0.196-0.224-0.174-0.563,0.05-0.759c0.042-0.038,4.298-3.678,10.384-0.059
							c0.256,0.152,0.341,0.484,0.188,0.74C269.115,52.694,268.935,52.787,268.752,52.787z"/>
					</g>
					<g>
						<path style="fill:#263238;" d="M265.05,57.609c0,0.748-0.607,1.354-1.354,1.354c-0.748,0-1.355-0.606-1.355-1.354
							c0-0.748,0.607-1.354,1.355-1.354C264.443,56.255,265.05,56.861,265.05,57.609z"/>
					</g>
				</g>
			</g>
		</g>
	</g>
</g>
<g id="Text">
	<g>
		<path style="fill:#263238;" d="M271.27,396.4l4.873-4.873c0.586-0.586,0.586-1.535,0-2.121c-0.586-0.586-1.535-0.586-2.121,0
			l-4.873,4.873l-4.873-4.873c-0.586-0.586-1.535-0.586-2.121,0c-0.586,0.586-0.586,1.535,0,2.121l4.873,4.873l-4.873,4.873
			c-0.586,0.586-0.586,1.535,0,2.121c0.293,0.293,0.677,0.44,1.061,0.44s0.768-0.147,1.06-0.44l4.873-4.873l4.873,4.873
			c0.293,0.293,0.677,0.44,1.061,0.44c0.384,0,0.768-0.147,1.061-0.44c0.586-0.586,0.586-1.535,0-2.121L271.27,396.4z"/>
		<g>
			<path style="fill:#263238;" d="M151.781,337.285v-9.855c-0.06,0.03-0.178,0.075-0.353,0.136c-0.175,0.06-0.368,0.117-0.578,0.172
				c-0.21,0.056-0.403,0.108-0.578,0.158c-0.175,0.05-0.297,0.09-0.367,0.12v-1.546c0.14-0.05,0.315-0.119,0.525-0.21
				c0.21-0.09,0.433-0.192,0.667-0.307c0.235-0.115,0.455-0.243,0.66-0.383c0.205-0.14,0.372-0.285,0.503-0.436h1.59v12.15H151.781z
				"/>
		</g>
		<g>
			<path style="fill:#263238;" d="M207.8,337.285v-1.47l3-4.636c0.22-0.34,0.427-0.664,0.622-0.975
				c0.195-0.31,0.355-0.632,0.48-0.968c0.125-0.335,0.188-0.702,0.188-1.103c0-0.449-0.08-0.795-0.24-1.034
				c-0.16-0.24-0.41-0.36-0.75-0.36c-0.32,0-0.57,0.09-0.75,0.27c-0.18,0.181-0.303,0.415-0.368,0.705
				c-0.065,0.29-0.097,0.61-0.097,0.96v0.511h-2.04v-0.54c0-0.721,0.107-1.353,0.322-1.897c0.215-0.545,0.558-0.973,1.027-1.283
				c0.47-0.31,1.085-0.465,1.845-0.465c1.04,0,1.82,0.28,2.34,0.84c0.52,0.561,0.78,1.341,0.78,2.34c0,0.501-0.07,0.953-0.21,1.358
				c-0.14,0.404-0.325,0.792-0.555,1.162c-0.23,0.37-0.48,0.75-0.75,1.14l-2.49,3.78h3.69v1.665H207.8z"/>
		</g>
		<g>
			<path style="fill:#263238;" d="M266.322,337.465c-0.76,0-1.372-0.143-1.837-0.427c-0.465-0.285-0.803-0.69-1.013-1.216
				c-0.21-0.525-0.315-1.137-0.315-1.837v-0.42h2.055c0,0.029,0,0.08,0,0.149c0,0.07,0,0.141,0,0.21
				c0.01,0.381,0.045,0.705,0.105,0.976c0.06,0.27,0.172,0.475,0.337,0.615c0.165,0.14,0.392,0.21,0.683,0.21
				c0.31,0,0.542-0.075,0.697-0.226c0.155-0.149,0.26-0.37,0.315-0.66c0.055-0.29,0.082-0.635,0.082-1.035
				c0-0.619-0.097-1.107-0.293-1.462c-0.195-0.354-0.572-0.548-1.132-0.577c-0.02,0-0.067,0-0.143,0c-0.075,0-0.143,0-0.203,0V330.1
				c0.05,0,0.102,0,0.158,0c0.055,0,0.107,0,0.157,0c0.55-0.011,0.93-0.158,1.14-0.443c0.21-0.284,0.315-0.742,0.315-1.372
				c0-0.51-0.078-0.91-0.232-1.2c-0.155-0.29-0.453-0.435-0.893-0.435c-0.43,0-0.717,0.16-0.862,0.48
				c-0.145,0.32-0.223,0.735-0.232,1.245c0,0.07,0,0.143,0,0.218s0,0.152,0,0.232h-2.055v-0.585c0-0.69,0.122-1.277,0.368-1.763
				c0.245-0.484,0.602-0.854,1.072-1.11c0.47-0.255,1.04-0.382,1.71-0.382c0.69,0,1.27,0.125,1.74,0.375
				c0.47,0.25,0.827,0.612,1.072,1.087c0.245,0.475,0.368,1.058,0.368,1.748c0,0.72-0.15,1.31-0.45,1.77
				c-0.3,0.46-0.685,0.761-1.155,0.9c0.32,0.1,0.6,0.272,0.84,0.518c0.24,0.245,0.428,0.564,0.563,0.96
				c0.135,0.396,0.203,0.872,0.203,1.433c0,0.73-0.103,1.372-0.308,1.928c-0.205,0.555-0.54,0.987-1.005,1.297
				C267.71,337.309,267.092,337.465,266.322,337.465z"/>
		</g>
		<g>
			<path style="fill:#263238;" d="M152.786,358.821v-2.985h-3.63v-1.77l3.165-7.396h2.415v7.516h1.245v1.649h-1.245v2.985H152.786z
				 M150.897,354.186h1.89v-5.28L150.897,354.186z"/>
		</g>
		<g>
			<path style="fill:#263238;" d="M210.95,359.001c-0.81,0-1.438-0.149-1.882-0.449c-0.445-0.301-0.752-0.726-0.922-1.275
				c-0.171-0.55-0.255-1.195-0.255-1.936h2.025c0,0.41,0.027,0.773,0.083,1.088c0.055,0.315,0.165,0.561,0.33,0.735
				c0.165,0.175,0.408,0.257,0.727,0.247c0.35,0,0.598-0.112,0.743-0.337c0.145-0.226,0.237-0.54,0.277-0.945
				c0.04-0.405,0.06-0.878,0.06-1.418c0-0.47-0.027-0.88-0.083-1.229c-0.055-0.35-0.163-0.623-0.322-0.817
				c-0.16-0.195-0.41-0.293-0.75-0.293c-0.291,0-0.53,0.098-0.72,0.293c-0.19,0.194-0.33,0.452-0.42,0.772h-1.785l0.12-6.766h5.46
				v1.86h-3.72l-0.12,2.925c0.15-0.18,0.367-0.324,0.652-0.435c0.285-0.11,0.602-0.175,0.953-0.195c0.64-0.03,1.16,0.105,1.56,0.405
				c0.4,0.3,0.695,0.734,0.885,1.305c0.19,0.57,0.285,1.25,0.285,2.04c0,0.641-0.042,1.23-0.127,1.771
				c-0.085,0.54-0.243,1.007-0.473,1.402c-0.23,0.395-0.553,0.702-0.967,0.922C212.148,358.891,211.61,359.001,210.95,359.001z"/>
		</g>
		<g>
			<path style="fill:#263238;" d="M266.389,358.986c-0.75,0-1.36-0.175-1.83-0.525c-0.47-0.35-0.813-0.827-1.027-1.433
				c-0.215-0.605-0.322-1.282-0.322-2.032v-4.26c0-0.79,0.09-1.502,0.27-2.138c0.18-0.635,0.5-1.138,0.96-1.508
				c0.46-0.369,1.104-0.555,1.935-0.555c0.71,0,1.287,0.118,1.732,0.353c0.445,0.235,0.772,0.577,0.982,1.027
				c0.21,0.45,0.315,1.005,0.315,1.665c0,0.03,0.003,0.063,0.007,0.098c0.005,0.035,0.008,0.067,0.008,0.098h-1.995
				c0-0.54-0.065-0.945-0.195-1.215c-0.13-0.27-0.41-0.405-0.84-0.405c-0.26,0-0.47,0.08-0.63,0.24
				c-0.16,0.16-0.277,0.423-0.353,0.787c-0.075,0.365-0.112,0.853-0.112,1.463v1.455c0.14-0.23,0.353-0.413,0.637-0.548
				c0.285-0.135,0.618-0.202,0.997-0.202c0.66-0.01,1.18,0.135,1.56,0.435c0.38,0.3,0.652,0.715,0.817,1.245
				c0.165,0.53,0.247,1.135,0.247,1.815c0,0.79-0.1,1.497-0.3,2.122c-0.2,0.625-0.53,1.117-0.99,1.478
				C267.804,358.806,267.179,358.986,266.389,358.986z M266.404,357.381c0.29,0,0.51-0.09,0.66-0.27
				c0.15-0.18,0.255-0.43,0.315-0.75c0.06-0.32,0.09-0.695,0.09-1.125c0-0.44-0.018-0.833-0.052-1.178
				c-0.035-0.345-0.128-0.62-0.278-0.825c-0.15-0.204-0.4-0.307-0.75-0.307c-0.17,0-0.328,0.032-0.472,0.097
				c-0.145,0.065-0.27,0.148-0.375,0.248c-0.105,0.1-0.188,0.2-0.247,0.3v1.905c0,0.34,0.032,0.655,0.097,0.944
				c0.065,0.291,0.18,0.523,0.345,0.698C265.902,357.294,266.124,357.381,266.404,357.381z"/>
		</g>
		<g>
			<path style="fill:#263238;" d="M150.544,380.358l2.415-10.56h-3.285v-1.591h5.325v1.275l-2.445,10.875H150.544z"/>
		</g>
		<g>
			<path style="fill:#263238;" d="M210.912,380.523c-0.771,0-1.39-0.155-1.86-0.465s-0.805-0.743-1.005-1.298
				c-0.2-0.555-0.3-1.197-0.3-1.928c0-0.35,0.032-0.672,0.097-0.967c0.065-0.295,0.16-0.563,0.285-0.803
				c0.125-0.24,0.277-0.452,0.458-0.638c0.18-0.185,0.385-0.337,0.615-0.457c-0.36-0.25-0.663-0.593-0.908-1.028
				c-0.245-0.434-0.373-0.987-0.382-1.657c0-0.66,0.107-1.232,0.322-1.718c0.215-0.484,0.547-0.854,0.998-1.109
				c0.45-0.255,1.01-0.383,1.68-0.383c0.68,0,1.24,0.13,1.68,0.391c0.44,0.26,0.768,0.63,0.982,1.109
				c0.215,0.48,0.317,1.05,0.308,1.71c-0.01,0.681-0.133,1.235-0.367,1.665c-0.235,0.431-0.533,0.771-0.893,1.021
				c0.23,0.12,0.435,0.272,0.615,0.457c0.18,0.185,0.332,0.397,0.457,0.638c0.125,0.24,0.22,0.508,0.285,0.803
				c0.065,0.295,0.098,0.617,0.098,0.967c0.01,0.73-0.088,1.373-0.293,1.928c-0.205,0.555-0.54,0.988-1.005,1.298
				C212.315,380.368,211.692,380.523,210.912,380.523z M210.912,378.948c0.33,0,0.577-0.1,0.742-0.3
				c0.165-0.2,0.272-0.452,0.323-0.758c0.05-0.305,0.075-0.617,0.075-0.938c0.01-0.34-0.015-0.667-0.075-0.982
				c-0.06-0.314-0.173-0.572-0.337-0.772c-0.165-0.2-0.408-0.3-0.728-0.3c-0.31,0-0.548,0.1-0.713,0.3
				c-0.165,0.2-0.28,0.455-0.345,0.766c-0.065,0.31-0.098,0.64-0.098,0.989c0,0.32,0.027,0.636,0.082,0.945
				c0.055,0.31,0.168,0.563,0.337,0.758C210.347,378.85,210.592,378.948,210.912,378.948z M210.912,373.143
				c0.25-0.01,0.447-0.098,0.592-0.263c0.145-0.165,0.248-0.393,0.308-0.683c0.06-0.29,0.09-0.62,0.09-0.99
				c0-0.459-0.075-0.834-0.225-1.125c-0.15-0.289-0.405-0.435-0.765-0.435c-0.351,0-0.608,0.146-0.772,0.435
				c-0.165,0.291-0.248,0.66-0.248,1.11c0,0.37,0.032,0.703,0.097,0.997c0.065,0.296,0.173,0.525,0.323,0.691
				C210.462,373.046,210.662,373.134,210.912,373.143z"/>
		</g>
		<g>
			<path style="fill:#263238;" d="M210.912,401.634c-0.71,0-1.297-0.15-1.762-0.449c-0.465-0.301-0.815-0.715-1.05-1.245
				c-0.235-0.53-0.353-1.141-0.353-1.83v-5.386c0-0.709,0.113-1.332,0.338-1.867c0.225-0.535,0.57-0.952,1.035-1.252
				c0.465-0.301,1.063-0.45,1.792-0.45c0.73,0,1.328,0.149,1.792,0.45c0.465,0.3,0.81,0.717,1.035,1.252
				c0.225,0.535,0.337,1.158,0.337,1.867v5.386c0,0.69-0.118,1.3-0.353,1.83c-0.235,0.53-0.585,0.944-1.05,1.245
				C212.21,401.485,211.622,401.634,210.912,401.634z M210.912,399.849c0.31,0,0.54-0.095,0.69-0.284c0.15-0.19,0.25-0.42,0.3-0.69
				c0.05-0.27,0.075-0.535,0.075-0.795v-5.325c0-0.279-0.023-0.558-0.067-0.832c-0.045-0.275-0.143-0.508-0.292-0.698
				c-0.15-0.189-0.385-0.284-0.705-0.284c-0.32,0-0.555,0.095-0.705,0.284c-0.15,0.19-0.247,0.423-0.292,0.698
				c-0.045,0.275-0.067,0.553-0.067,0.832v5.325c0,0.26,0.027,0.525,0.083,0.795c0.055,0.271,0.158,0.5,0.308,0.69
				C210.387,399.755,210.612,399.849,210.912,399.849z"/>
		</g>
		<g>
			<path style="fill:#263238;" d="M266.179,380.523c-0.7,0-1.275-0.12-1.725-0.36c-0.45-0.239-0.78-0.59-0.99-1.05
				c-0.21-0.46-0.315-1.02-0.315-1.68c0-0.02,0-0.045,0-0.075s0-0.06,0-0.09h1.98c0,0.54,0.067,0.945,0.202,1.215
				c0.135,0.27,0.422,0.405,0.863,0.405c0.27,0,0.48-0.08,0.63-0.24c0.15-0.16,0.26-0.425,0.33-0.795
				c0.07-0.37,0.105-0.855,0.105-1.455v-1.455c-0.14,0.23-0.35,0.41-0.63,0.54c-0.28,0.13-0.615,0.2-1.005,0.21
				c-0.65,0.01-1.168-0.143-1.553-0.457c-0.385-0.315-0.66-0.743-0.825-1.283c-0.165-0.54-0.247-1.149-0.247-1.83
				c0-0.8,0.105-1.502,0.315-2.107c0.21-0.604,0.55-1.08,1.02-1.425c0.47-0.345,1.085-0.518,1.845-0.518
				c0.75,0,1.36,0.168,1.83,0.503c0.47,0.335,0.813,0.797,1.027,1.388c0.215,0.59,0.323,1.265,0.323,2.024v4.305
				c0,0.79-0.093,1.506-0.278,2.146c-0.185,0.64-0.505,1.147-0.96,1.522C267.667,380.336,267.019,380.523,266.179,380.523z
				 M266.194,374.118c0.28,0,0.502-0.069,0.668-0.21c0.165-0.14,0.297-0.29,0.397-0.45v-1.89c0-0.35-0.03-0.667-0.09-0.952
				c-0.06-0.285-0.168-0.516-0.323-0.69c-0.155-0.175-0.377-0.263-0.668-0.263c-0.28,0-0.497,0.09-0.652,0.27
				c-0.155,0.18-0.263,0.43-0.323,0.75c-0.06,0.32-0.09,0.695-0.09,1.125c0,0.43,0.018,0.82,0.053,1.17
				c0.035,0.35,0.128,0.628,0.277,0.832C265.594,374.015,265.844,374.118,266.194,374.118z"/>
		</g>
	</g>
	<g>
		<path style="fill:#92E3A9;" d="M197.214,281.437v-12.149h5.1v1.56h-2.88v3.495h2.265v1.545h-2.265v4.02h2.91v1.529H197.214z"/>
		<path style="fill:#92E3A9;" d="M203.634,281.437v-12.149h1.545l2.955,6.93v-6.93h1.83v12.149h-1.47l-2.97-7.26v7.26H203.634z"/>
		<path style="fill:#92E3A9;" d="M213.024,281.437v-10.515h-1.935v-1.635h6.06v1.635h-1.905v10.515H213.024z"/>
		<path style="fill:#92E3A9;" d="M218.259,281.437v-12.149h5.1v1.56h-2.88v3.495h2.265v1.545h-2.265v4.02h2.91v1.529H218.259z"/>
		<path style="fill:#92E3A9;" d="M224.679,281.437v-12.149h2.91c0.82,0,1.512,0.097,2.077,0.292c0.565,0.195,0.995,0.527,1.29,0.998
			c0.295,0.47,0.442,1.109,0.442,1.92c0,0.49-0.045,0.93-0.135,1.319c-0.09,0.391-0.243,0.723-0.458,0.998
			c-0.215,0.275-0.513,0.487-0.893,0.638l1.695,5.984h-2.22l-1.47-5.564h-1.02v5.564H224.679z M226.899,274.477h0.691
			c0.43,0,0.772-0.063,1.027-0.188s0.438-0.324,0.547-0.6c0.11-0.275,0.165-0.628,0.165-1.058c0-0.61-0.112-1.067-0.337-1.373
			c-0.225-0.305-0.652-0.457-1.283-0.457h-0.81V274.477z"/>
	</g>
	<g>
		<path style="fill:#263238;" d="M167.236,106.283l-2.119-10.53h1.703l1.391,7.449l1.3-7.449h1.742l-2.119,10.53H167.236z"/>
		<path style="fill:#263238;" d="M172.331,106.283v-10.53h4.42v1.352h-2.496v3.029h1.963v1.339h-1.963v3.484h2.523v1.326H172.331z"
			/>
		<path style="fill:#263238;" d="M177.895,106.283v-10.53h2.522c0.71,0,1.311,0.085,1.8,0.254c0.49,0.169,0.862,0.457,1.118,0.864
			c0.256,0.408,0.384,0.962,0.384,1.664c0,0.425-0.039,0.806-0.117,1.144c-0.078,0.338-0.21,0.626-0.396,0.865
			c-0.186,0.238-0.444,0.422-0.773,0.552l1.469,5.187h-1.924l-1.274-4.823h-0.884v4.823H177.895z M179.819,100.251h0.599
			c0.372,0,0.669-0.054,0.89-0.162c0.222-0.108,0.38-0.282,0.475-0.52c0.096-0.238,0.144-0.544,0.144-0.917
			c0-0.529-0.098-0.925-0.293-1.189c-0.194-0.265-0.566-0.396-1.111-0.396h-0.702V100.251z"/>
		<path style="fill:#263238;" d="M185.214,106.283v-10.53h1.898v10.53H185.214z"/>
		<path style="fill:#263238;" d="M188.737,106.283v-10.53h4.329v1.326h-2.405v3.068h1.963v1.339h-1.963v4.797H188.737z"/>
		<path style="fill:#263238;" d="M194.118,106.283v-10.53h1.898v10.53H194.118z"/>
		<path style="fill:#263238;" d="M200.476,106.426c-0.771,0-1.376-0.151-1.814-0.455c-0.438-0.303-0.743-0.717-0.916-1.242
			c-0.174-0.524-0.261-1.128-0.261-1.813v-3.757c0-0.719,0.087-1.343,0.261-1.872c0.173-0.528,0.479-0.936,0.916-1.222
			c0.438-0.286,1.042-0.429,1.814-0.429c0.729,0,1.298,0.124,1.71,0.371c0.411,0.247,0.704,0.6,0.877,1.06
			c0.174,0.459,0.26,0.992,0.26,1.599v0.884h-1.846v-0.91c0-0.295-0.016-0.563-0.046-0.806c-0.03-0.242-0.112-0.436-0.246-0.578
			c-0.135-0.143-0.366-0.215-0.696-0.215c-0.329,0-0.569,0.076-0.721,0.228c-0.152,0.152-0.25,0.355-0.293,0.611
			c-0.043,0.255-0.065,0.544-0.065,0.864v4.576c0,0.381,0.03,0.695,0.092,0.942c0.061,0.247,0.171,0.434,0.331,0.559
			c0.16,0.125,0.379,0.188,0.656,0.188c0.321,0,0.549-0.076,0.683-0.228c0.135-0.151,0.219-0.353,0.254-0.604
			c0.034-0.252,0.052-0.533,0.052-0.845v-0.949h1.846v0.845c0,0.624-0.082,1.177-0.247,1.658c-0.164,0.481-0.452,0.858-0.864,1.131
			C201.8,106.289,201.221,106.426,200.476,106.426z"/>
		<path style="fill:#263238;" d="M204.128,106.283l2.106-10.53h2.054l2.106,10.53h-1.781l-0.416-2.431h-1.833l-0.429,2.431H204.128z
			 M206.56,102.63h1.43l-0.715-4.42L206.56,102.63z"/>
		<path style="fill:#263238;" d="M212.006,106.283V97.17h-1.677v-1.417h5.252v1.417h-1.651v9.113H212.006z"/>
		<path style="fill:#263238;" d="M216.595,106.283v-10.53h1.898v10.53H216.595z"/>
		<path style="fill:#263238;" d="M222.979,106.426c-0.746,0-1.339-0.139-1.781-0.416c-0.442-0.277-0.759-0.676-0.949-1.196
			c-0.19-0.52-0.286-1.135-0.286-1.846v-3.939c0-0.71,0.096-1.32,0.286-1.827c0.19-0.507,0.507-0.895,0.949-1.164
			c0.442-0.269,1.035-0.403,1.781-0.403c0.763,0,1.362,0.134,1.8,0.403c0.438,0.269,0.754,0.657,0.949,1.164
			c0.195,0.507,0.293,1.116,0.293,1.827v3.952c0,0.702-0.098,1.311-0.293,1.826c-0.195,0.516-0.512,0.915-0.949,1.196
			C224.341,106.285,223.741,106.426,222.979,106.426z M222.979,105.009c0.32,0,0.557-0.069,0.708-0.208
			c0.151-0.139,0.254-0.329,0.306-0.572c0.052-0.242,0.078-0.507,0.078-0.793v-4.849c0-0.295-0.026-0.559-0.078-0.793
			c-0.052-0.234-0.154-0.418-0.306-0.553c-0.151-0.134-0.388-0.202-0.708-0.202c-0.304,0-0.533,0.067-0.689,0.202
			c-0.156,0.134-0.26,0.318-0.311,0.553c-0.053,0.234-0.078,0.498-0.078,0.793v4.849c0,0.286,0.023,0.551,0.071,0.793
			c0.048,0.243,0.15,0.434,0.306,0.572C222.433,104.94,222.666,105.009,222.979,105.009z"/>
		<path style="fill:#263238;" d="M227.438,106.283v-10.53h1.339l2.561,6.006v-6.006h1.586v10.53h-1.274l-2.574-6.292v6.292H227.438z
			"/>
		<path style="fill:#263238;" d="M240.515,106.426c-0.771,0-1.376-0.151-1.813-0.455c-0.438-0.303-0.743-0.717-0.916-1.242
			c-0.174-0.524-0.261-1.128-0.261-1.813v-3.757c0-0.719,0.087-1.343,0.261-1.872c0.173-0.528,0.479-0.936,0.916-1.222
			c0.438-0.286,1.042-0.429,1.813-0.429c0.729,0,1.298,0.124,1.71,0.371c0.411,0.247,0.704,0.6,0.877,1.06
			c0.174,0.459,0.26,0.992,0.26,1.599v0.884h-1.846v-0.91c0-0.295-0.016-0.563-0.046-0.806c-0.03-0.242-0.112-0.436-0.246-0.578
			c-0.135-0.143-0.366-0.215-0.696-0.215c-0.329,0-0.569,0.076-0.721,0.228c-0.152,0.152-0.25,0.355-0.293,0.611
			c-0.043,0.255-0.065,0.544-0.065,0.864v4.576c0,0.381,0.03,0.695,0.092,0.942c0.061,0.247,0.171,0.434,0.331,0.559
			c0.16,0.125,0.379,0.188,0.656,0.188c0.321,0,0.549-0.076,0.683-0.228c0.135-0.151,0.219-0.353,0.254-0.604
			c0.034-0.252,0.052-0.533,0.052-0.845v-0.949h1.846v0.845c0,0.624-0.082,1.177-0.247,1.658c-0.164,0.481-0.452,0.858-0.864,1.131
			C241.839,106.289,241.26,106.426,240.515,106.426z"/>
		<path style="fill:#263238;" d="M247.562,106.426c-0.746,0-1.339-0.139-1.781-0.416c-0.442-0.277-0.759-0.676-0.949-1.196
			c-0.19-0.52-0.286-1.135-0.286-1.846v-3.939c0-0.71,0.096-1.32,0.286-1.827c0.19-0.507,0.507-0.895,0.949-1.164
			c0.442-0.269,1.035-0.403,1.781-0.403c0.763,0,1.362,0.134,1.8,0.403c0.437,0.269,0.754,0.657,0.949,1.164
			c0.195,0.507,0.293,1.116,0.293,1.827v3.952c0,0.702-0.098,1.311-0.293,1.826c-0.195,0.516-0.512,0.915-0.949,1.196
			C248.924,106.285,248.324,106.426,247.562,106.426z M247.562,105.009c0.32,0,0.557-0.069,0.708-0.208
			c0.151-0.139,0.254-0.329,0.306-0.572c0.052-0.242,0.078-0.507,0.078-0.793v-4.849c0-0.295-0.026-0.559-0.078-0.793
			c-0.052-0.234-0.154-0.418-0.306-0.553c-0.151-0.134-0.388-0.202-0.708-0.202c-0.304,0-0.533,0.067-0.689,0.202
			c-0.156,0.134-0.26,0.318-0.312,0.553c-0.053,0.234-0.078,0.498-0.078,0.793v4.849c0,0.286,0.023,0.551,0.071,0.793
			c0.048,0.243,0.15,0.434,0.306,0.572C247.016,104.94,247.249,105.009,247.562,105.009z"/>
		<path style="fill:#263238;" d="M252.02,106.283v-10.53h2.483c0.857,0,1.527,0.117,2.008,0.351
			c0.481,0.234,0.823,0.594,1.027,1.079c0.203,0.485,0.306,1.101,0.306,1.846v3.848c0,0.763-0.103,1.397-0.306,1.904
			c-0.204,0.507-0.542,0.884-1.014,1.131c-0.473,0.247-1.12,0.371-1.944,0.371H252.02z M253.944,104.944h0.585
			c0.442,0,0.759-0.078,0.949-0.234c0.19-0.156,0.308-0.383,0.351-0.682c0.044-0.299,0.065-0.665,0.065-1.099v-4.03
			c0-0.425-0.03-0.767-0.091-1.027c-0.061-0.26-0.187-0.45-0.377-0.572c-0.191-0.122-0.499-0.182-0.923-0.182h-0.56V104.944z"/>
		<path style="fill:#263238;" d="M259.261,106.283v-10.53h4.42v1.352h-2.496v3.029h1.963v1.339h-1.963v3.484h2.523v1.326H259.261z"
			/>
	</g>
</g>
<g id="Arrow">
	<g>
		
			<line style="fill:none;stroke:#263238;stroke-linecap:round;stroke-linejoin:round;stroke-miterlimit:10;stroke-dasharray:5;" x1="401.793" y1="23.43" x2="401.793" y2="72.655"/>
		<g>
			<g>
				<path style="fill:none;stroke:#263238;stroke-linecap:round;stroke-linejoin:round;stroke-dasharray:5,5;" d="M401.793,156.665
					v41.465c0,13.71-11.114,24.824-24.824,24.824h-52.185"/>
				<g>
					<polygon style="fill:#263238;" points="326.607,216.722 315.814,222.954 326.607,229.187 					"/>
				</g>
			</g>
		</g>
	</g>
</g>
<g id="Email">
	<g>
		
			<rect x="360.932" y="84.898" transform="matrix(0.9795 0.2016 -0.2016 0.9795 31.9867 -79.474)" style="fill:#263238;" width="90.602" height="64.857"/>
		
			<rect x="356.338" y="78.991" transform="matrix(0.9795 0.2016 -0.2016 0.9795 30.702 -78.6696)" style="fill:#FFFFFF;stroke:#263238;stroke-miterlimit:10;" width="90.602" height="64.857"/>
		<polyline style="fill:none;stroke:#263238;stroke-linecap:round;stroke-linejoin:round;stroke-miterlimit:10;" points="
			363.804,70.526 401.639,111.42 452.546,88.788 		"/>
	</g>
</g>
<g id="Character">
	<g>
		<g>
			<path style="fill:#FFFFFF;stroke:#263238;stroke-linecap:round;stroke-linejoin:round;stroke-miterlimit:10;" d="
				M387.832,428.155c0,0-17.344-23.117-38.986-39.15c-21.642-16.033-40.201-22.596-45.295-21.065
				c-5.095,1.531-9.569,6.447-9.569,6.447l-60.474,60.711c0,0-19.945,15.755-22.149,17.132c-2.205,1.377-12.495,7.803-18.805,9.778
				c-6.31,1.976-16.64,1.668-16.697,3.59c-0.057,1.922,1.341,3.406,4.428,4.7c3.087,1.294,10.71,3.685,17.916,3.9
				c7.207,0.215,11.742,1.311,13.89,1.856c2.148,0.545,8.315,3.373,9.828,1.014c1.513-2.359,3.602-16.002,4.126-17.429
				c0.523-1.427,19.69-15.282,33.11-21.855c13.42-6.573,29.851-17.384,34.572-22.533c4.722-5.149,11.691-13.116,11.691-13.116
				s21.513,20.357,28.921,29.954c7.408,9.598,19.316,21.493,40.897,31.513c21.581,10.02,29.518,1.841,30.963-6.29
				C407.642,449.182,387.832,428.155,387.832,428.155z"/>
			<path style="fill:#263238;stroke:#263238;stroke-linecap:round;stroke-linejoin:round;stroke-miterlimit:10;" d="
				M348.846,389.005c-21.642-16.033-40.201-22.596-45.295-21.065c-5.095,1.531-9.569,6.447-9.569,6.447l-59.759,59.993
				c1.297,3.627,4.251,8.312,10.974,11.376c4.705-2.973,9.629-5.851,13.957-7.971c13.42-6.573,29.851-17.384,34.572-22.533
				c4.722-5.149,11.691-13.116,11.691-13.116s21.513,20.357,28.921,29.954c7.408,9.598,27.489,36.465,50.5,42.52
				c42.357,11.146,40.912-10.446,42.357-18.578c1.444-8.132-39.363-27.879-39.363-27.879S370.488,405.038,348.846,389.005z"/>
			<path style="fill:#FFFFFF;stroke:#263238;stroke-linecap:round;stroke-linejoin:round;stroke-miterlimit:10;" d="
				M175.856,465.599c-0.057,1.922,1.341,3.406,4.428,4.7c3.087,1.294,10.71,3.685,17.916,3.9c7.207,0.215,11.742,1.311,13.89,1.856
				c2.148,0.545,8.315,3.373,9.827,1.014c1.3-2.028,3.026-12.385,3.818-16.163c-6.586,0.217-14.076-2.656-14.076-2.656
				s0.531-1.667-0.301-6.02c-2.205,1.377-12.495,7.803-18.805,9.778C186.243,463.985,175.913,463.677,175.856,465.599z"/>
		</g>
		<path style="fill:#263238;stroke:#263238;stroke-linecap:round;stroke-linejoin:round;stroke-miterlimit:10;" d="M462.205,339.286
			c-5.725-5.112-18.608-17.381-27.605-32.717c-8.997-15.336-6.543-20.244-13.291-32.308c-6.748-12.064-16.563-17.994-29.854-15.336
			c-10.799,2.16-16.334,8.639-18.03,10.993c-0.381,0.529-0.77,1.042-1.193,1.538c-1.942,2.277-8.087,10.691-12.676,30.41
			c-5.521,23.72-5.316,35.375,3.067,40.896c8.384,5.521,14.314,3.067,16.767,5.725c2.454,2.658,3.272,5.93,1.227,5.93
			s-3.067-1.227-3.067-1.227s4.703,7.157,9.202,5.112s9.611-9.406,6.339-19.221c-3.272-9.815-12.064-19.835-13.496-21.675
			c-1.431-1.84-4.294-23.106-4.294-23.106s0.204-7.157,8.179-4.703c7.975,2.454,18.812,6.952,22.289,14.109
			c3.476,7.157,16.358,23.311,27.605,28.218c11.246,4.908,15.745,9.406,19.835,21.471s4.09,15.949,4.09,15.949
			s8.384-3.885,10.02-12.678C468.953,347.874,467.931,344.398,462.205,339.286z M363.441,339.695
			c-3.885-4.294-1.431-12.064-1.431-12.064c-1.227,11.042,11.451,17.176,11.451,17.176S367.326,343.989,363.441,339.695z"/>
		<g>
			<g>
				<path style="fill:#263238;stroke:#263238;stroke-linecap:round;stroke-linejoin:round;stroke-miterlimit:10;" d="
					M388.735,430.039c0,0-27.157-4.806-33.886-2.403c-6.729,2.403-24.273,31.243-27.397,34.607
					c-3.124,3.365-6.489,4.807-9.373,4.807c-2.884,0-13.218-1.923-19.226-0.721c-6.008,1.202-13.458,5.047-12.737,8.652
					c0.721,3.605,4.085,5.287,15.141,6.969c11.055,1.682,22.831-2.403,25.955-4.086c3.124-1.682,6.729-4.086,7.69-4.566
					c0.961-0.481,9.613-2.403,14.42-5.527c4.807-3.124,10.094-8.171,10.094-8.171s20.428,9.373,28.118,13.458
					c7.691,4.086,19.707,6.729,26.436,6.729c6.729,0,21.389-1.923,24.994-3.605c3.605-1.682,10.334-8.171,10.334-15.621
					c0-7.45,0.801-17.854-1.642-18.3c-2.443-0.446-4.606,0.516-7.009,0.275c-2.403-0.24-15.621-7.69-18.986-9.132
					C418.295,431.961,388.735,430.039,388.735,430.039z"/>
				<path style="fill:none;stroke:#FFFFFF;stroke-linecap:round;stroke-linejoin:round;stroke-miterlimit:10;" d="M346.676,436.203
					c2.905-3.283,6.516-7.243,8.173-8.568c3.004-2.401,25.291,0.17,25.291,0.17"/>
				<path style="fill:none;stroke:#FFFFFF;stroke-linecap:round;stroke-linejoin:round;stroke-miterlimit:10;" d="M342.422,441.093
					c0,0,1.03-1.208,2.517-2.913"/>
			</g>
			<path style="fill:#FFFFFF;stroke:#263238;stroke-linecap:round;stroke-linejoin:round;stroke-miterlimit:10;" d="
				M326.722,462.967c-2.913,2.833-5.982,4.082-8.643,4.082c-2.884,0-13.218-1.923-19.226-0.721
				c-6.008,1.202-13.458,5.047-12.737,8.652c0.721,3.605,4.085,5.287,15.141,6.969c11.055,1.682,22.831-2.403,25.955-4.086
				c3.045-1.64,6.54-3.959,7.605-4.521C329.548,470.854,327.502,465.996,326.722,462.967z"/>
			<path style="fill:#FFFFFF;stroke:#263238;stroke-linecap:round;stroke-linejoin:round;stroke-miterlimit:10;" d="M318.8,472.096
				c-1.163-1.889,0.135-3.949,1.343-5.286c-0.708,0.161-1.398,0.24-2.064,0.24c-2.884,0-13.218-1.923-19.226-0.721
				c-6.008,1.202-13.458,5.047-12.737,8.652c0.721,3.605,4.085,5.287,15.141,6.969c11.055,1.682,22.831-2.403,25.955-4.086
				c0.478-0.258,0.968-0.533,1.457-0.815C325.625,476.631,320.476,474.821,318.8,472.096z"/>
		</g>
		<g>
			<path style="fill:#92E3A9;stroke:#263238;stroke-linecap:round;stroke-linejoin:round;stroke-miterlimit:10;" d="
				M392.886,330.698c0,0-18.812,0.204-20.857,7.361c-2.045,7.157-0.204,42.328-0.409,53.983s-0.204,19.221,1.227,22.084
				s9.815,8.179,10.428,8.384c0.613,0.204-0.204,6.543-0.204,6.543s14.518,1.84,22.697,2.045c8.179,0.204,15.541,3.272,23.106,9.202
				c7.566,5.93,12.473,9.815,12.473,9.815l4.703-5.112c0,0,1.84,17.381,3.885,25.356s8.997,8.384,11.042,8.384
				s8.793-0.204,8.793-0.204s-6.543-12.064-9.406-20.244c-2.863-8.179-4.703-15.132-4.703-15.132s1.431-2.249,1.431-7.157
				c0-4.908-1.022-7.77-0.818-12.678c0.204-4.908,8.997-26.378,5.316-50.302c-3.681-23.924-2.454-30.672-11.451-35.375
				c-8.997-4.703-28.627-7.566-34.148-7.975C410.471,329.267,392.886,330.698,392.886,330.698z"/>
			<path style="fill:#263238;stroke:#263238;stroke-linecap:round;stroke-linejoin:round;stroke-miterlimit:10;" d="
				M379.595,317.407c-0.315-0.405-0.699-1.751-1.107-3.603c-4.291-7.17-8.173-14.577-9.191-18.092
				c-1.545-5.333-0.352-15.47,0.45-20.799c-2.768,4.402-6.883,12.74-10.191,26.953c-5.521,23.72-5.316,35.375,3.067,40.896
				c8.384,5.521,14.314,3.067,16.767,5.725c2.454,2.658,3.272,5.93,1.227,5.93s-3.067-1.227-3.067-1.227s4.703,7.157,9.202,5.112
				s9.611-9.406,6.339-19.221C389.819,329.267,381.026,319.247,379.595,317.407z M363.441,339.695
				c-3.885-4.294-1.431-12.064-1.431-12.064c-1.227,11.042,11.451,17.176,11.451,17.176S367.326,343.989,363.441,339.695z"/>
			<g>
				<path style="fill:none;stroke:#263238;stroke-linecap:round;stroke-linejoin:round;stroke-miterlimit:10;" d="M418.882,425.219
					c3.528,0.51,5.837,0.837,5.837,0.837"/>
				<path style="fill:none;stroke:#263238;stroke-linecap:round;stroke-linejoin:round;stroke-miterlimit:10;" d="M385.702,393.77
					c0,0-4.114,24.681-2.368,25.679c1.172,0.67,19.442,3.421,31.312,5.155"/>
				
					<line style="fill:none;stroke:#263238;stroke-linecap:round;stroke-linejoin:round;stroke-miterlimit:10;" x1="385.079" y1="420.695" x2="383.071" y2="429.053"/>
				<path style="fill:none;stroke:#263238;stroke-linecap:round;stroke-linejoin:round;stroke-miterlimit:10;" d="M429.206,436.277
					c0,0,12.341,4.238,18.449,5.983c6.108,1.745,6.981,1.122,6.981,1.122"/>
				<polyline style="fill:none;stroke:#263238;stroke-linecap:round;stroke-linejoin:round;stroke-miterlimit:10;" points="
					408.514,349.144 417.738,354.38 417.987,346.651 				"/>
				
					<line style="fill:none;stroke:#263238;stroke-linecap:round;stroke-linejoin:round;stroke-miterlimit:10;" x1="395.924" y1="348.147" x2="394.178" y2="349.518"/>
				
					<line style="fill:none;stroke:#263238;stroke-linecap:round;stroke-linejoin:round;stroke-miterlimit:10;" x1="384.331" y1="364.851" x2="384.206" y2="360.114"/>
			</g>
		</g>
		<g>
			<path style="fill:#FFFFFF;stroke:#263238;stroke-linecap:round;stroke-linejoin:round;stroke-miterlimit:10;" d="
				M379.969,283.876c0,0-10.672,9.313-10.672,11.836s3.493,13.582,4.851,18.045c1.358,4.463,4.657,9.507,7.761,12.806
				c3.104,3.298,9.119,7.179,10.478,7.179c1.358,0,3.104-0.97,3.104-0.97s0.776,15.91,3.493,21.537
				c2.716,5.627,4.075,5.433,4.657,4.075c0.582-1.358,7.761-24.836,7.761-24.836l3.492-16.686l-7.373-19.015
				c0,0-10.284-9.119-17.269-11.448C383.267,284.07,379.969,283.876,379.969,283.876z"/>
			<path style="fill:none;stroke:#263238;stroke-linecap:round;stroke-linejoin:round;stroke-miterlimit:10;" d="M385.984,317.443
				c0,0,0,3.492,0.582,3.686c0.582,0.194,3.104,0.97,3.881-0.97"/>
			<path style="fill:none;stroke:#263238;stroke-linecap:round;stroke-linejoin:round;stroke-miterlimit:10;" d="M388.118,325.01
				c0,0,5.821,0.776,7.761-3.298"/>
			<path style="fill:#263238;stroke:#263238;stroke-linecap:round;stroke-linejoin:round;stroke-miterlimit:10;" d="
				M395.491,332.771c0,0,6.403-5.045,9.896-9.702c0,0-3.881,9.119-5.045,11.448c-1.164,2.328-1.746,4.075-1.746,4.075
				L395.491,332.771z"/>
			<path style="fill:none;stroke:#263238;stroke-linecap:round;stroke-linejoin:round;stroke-miterlimit:10;" d="M391.999,308.518
				c0,0,5.239,1.552,7.373-1.746"/>
			<path style="fill:none;stroke:#263238;stroke-linecap:round;stroke-linejoin:round;stroke-miterlimit:10;" d="M389.67,303.861
				c0,0,5.821-3.298,9.896-1.94"/>
			<path style="fill:none;stroke:#263238;stroke-linecap:round;stroke-linejoin:round;stroke-miterlimit:10;" d="M375.894,310.846
				c0,0,2.716,1.94,5.821-0.582"/>
			<path style="fill:none;stroke:#263238;stroke-linecap:round;stroke-linejoin:round;stroke-miterlimit:10;" d="M381.327,305.995
				c0,0-2.91-1.94-7.179,0.194"/>
		</g>
		<g>
			<path style="fill:#92E3A9;stroke:#263238;stroke-linecap:round;stroke-linejoin:round;stroke-miterlimit:10;" d="M435.827,355.44
				c0,0-2.249,7.77-1.431,13.087c0.818,5.317-0.409,22.493-0.409,23.311s-4.499,2.863-4.294,4.294
				c0.204,1.431,1.022,4.09,1.022,4.09l-6.543-2.658l-8.793,11.655c0,0,6.952,6.748,18.812,13.291s20.039,4.499,20.039,4.499
				s4.703-28.832,5.316-41.714c0.613-12.882,3.476-29.854-1.022-41.919c-3.514-9.425-19.017-10.633-22.493,5.521"/>
			
				<line style="fill:none;stroke:#263238;stroke-linecap:round;stroke-linejoin:round;stroke-miterlimit:10;" x1="446.719" y1="387.76" x2="448.71" y2="386.93"/>
			
				<line style="fill:none;stroke:#263238;stroke-linecap:round;stroke-linejoin:round;stroke-miterlimit:10;" x1="436.441" y1="392.042" x2="444.225" y2="388.799"/>
			<path style="fill:none;stroke:#263238;stroke-linecap:round;stroke-linejoin:round;stroke-miterlimit:10;" d="M432.146,400.63
				c0,0,17.177-4.294,16.972-2.863c-0.204,1.431-5.93,2.045-5.93,2.045"/>
			<path style="fill:none;stroke:#263238;stroke-linecap:round;stroke-linejoin:round;stroke-miterlimit:10;" d="M433.987,401.448
				c0,0,12.678,1.431,14.927,6.748"/>
			<path style="fill:none;stroke:#263238;stroke-linecap:round;stroke-linejoin:round;stroke-miterlimit:10;" d="M446.759,413.474
				c0.987,0.572,1.809,0.958,2.359,1.062"/>
			<path style="fill:none;stroke:#263238;stroke-linecap:round;stroke-linejoin:round;stroke-miterlimit:10;" d="M432.964,403.289
				c0,0,6.742,5.564,11.71,8.875"/>
		</g>
		<path style="fill:#FFFFFF;stroke:#263238;stroke-linecap:round;stroke-linejoin:round;stroke-miterlimit:10;" d="M353.791,365.599
			c0,0-4.612,9.848-2.867,11.468c1.745,1.62,12.216,11.717,13.213,12.216c0.997,0.499,3.864,9.224,5.36,12.59
			c1.496,3.366,2.368,11.219,5.236,12.341c2.867,1.122,8.975-4.737,9.1-7.729c0.125-2.992,0-4.114-2.742-7.978
			c-2.742-3.864-8.975-16.33-8.975-16.33l-17.078-18.573L353.791,365.599z"/>
		<polygon style="fill:#263238;stroke:#263238;stroke-linecap:round;stroke-linejoin:round;stroke-miterlimit:10;" points="
			345.813,353.383 365.134,384.795 379.968,386.79 365.508,358.244 		"/>
		<g>
			<path style="fill:#FFFFFF;stroke:#263238;stroke-linecap:round;stroke-linejoin:round;stroke-miterlimit:10;" d="
				M424.172,397.563c0,0-22.084-15.541-27.81-19.426c-5.725-3.885-8.179-6.134-8.179-6.134s-0.613-3.885-2.045-5.521
				c-1.431-1.636-2.863-2.045-5.521-1.84c-2.658,0.204-4.908,0.613-6.543,0c-1.636-0.614-4.703-5.726-5.112-3.476
				c-0.409,2.249-0.204,3.885,1.84,5.521c2.045,1.636,4.908,2.249,5.725,2.658c0.818,0.409-1.296,0.741-1.296,0.741
				s-4.14,1.74-10.222,1.122c-5.096-0.518-9.3-2.495-9.952-2.681c-1.431-0.409-1.227,1.636,0.409,2.863
				c1.636,1.227,2.658,1.84,2.658,1.84s-5.112-0.818-4.499,0.818c0.614,1.636,2.863,3.067,4.294,4.09
				c1.431,1.022,2.863,2.863,4.09,3.476c1.227,0.613,1.431,3.476,3.476,4.703c2.045,1.227,1.441,1.094,6.669,1.569
				c8.349,0.759,16.438-0.138,16.438-0.138l26.787,21.47L424.172,397.563z"/>
			<path style="fill:none;stroke:#263238;stroke-linecap:round;stroke-linejoin:round;stroke-miterlimit:10;" d="M358.124,373.23
				c0,0,5.112,2.454,5.93,2.454s11.042,0,11.042,0"/>
			<path style="fill:none;stroke:#263238;stroke-linecap:round;stroke-linejoin:round;stroke-miterlimit:10;" d="M357.045,377.693
				c0,0,2.758,0.39,3.477,0.869c0.719,0.48,5.397,1.409,6.836,1.649c1.439,0.24,6.476,0.12,6.476,0.12"/>
			<path style="fill:none;stroke:#263238;stroke-linecap:round;stroke-linejoin:round;stroke-miterlimit:10;" d="M362.009,381.614
				c0,0,5.708,2.795,6.788,3.035c1.079,0.24,6.955-0.24,6.955-0.24"/>
		</g>
		<g>
			<path style="fill:#263238;stroke:#263238;stroke-linecap:round;stroke-linejoin:round;stroke-miterlimit:10;" d="
				M429.079,317.407c-11.451-12.064-20.244-25.356-20.244-25.356s-2.249,32.104,2.658,45.804c4.908,13.7,22.902,7.975,29.241,4.499
				s8.588-6.134,12.473-5.521C453.208,336.832,440.53,329.471,429.079,317.407z"/>
			<path style="fill:#263238;stroke:#263238;stroke-linecap:round;stroke-linejoin:round;stroke-miterlimit:10;" d="
				M383.024,282.248c-7.14-8.479-3.055,1.628-3.055,1.628s13.673,13.057,27.552,13.97
				C407.521,297.846,390.164,290.726,383.024,282.248z"/>
		</g>
	</g>
</g>
</svg>
